<?xml version="1.0" standalone="no"?>
<!DOCTYPE svg PUBLIC "-//W3C//DTD SVG 20010904//EN"
 "http://www.w3.org/TR/2001/REC-SVG-20010904/DTD/svg10.dtd">
<svg version="1.0" xmlns="http://www.w3.org/2000/svg"
 width="1280.000000pt" height="842.000000pt" viewBox="0 0 1280.000000 842.000000"
 preserveAspectRatio="xMidYMid meet">
<metadata>
Created by potrace 1.15, written by Peter Selinger 2001-2017
</metadata>
<g transform="translate(0.000000,842.000000) scale(0.100000,-0.100000)"
fill="#4d362d" stroke="none">
<path d="M5595 7820 l-719 -600 -66 -397 c-37 -218 -71 -398 -77 -400 -6 -2
-136 28 -289 68 -154 39 -293 75 -309 79 -29 7 -66 -22 -730 -576 -385 -321
-709 -594 -721 -606 -20 -20 -29 -62 -68 -303 -26 -154 -53 -325 -62 -380 -25
-149 -5 -138 -179 -94 -82 21 -225 58 -316 81 l-166 42 -694 -578 c-382 -319
-706 -590 -721 -605 -26 -25 -30 -44 -93 -426 -39 -238 -71 -404 -79 -410 -7
-5 -75 -63 -153 -128 l-140 -118 -7 -316 c-4 -173 -5 -317 -3 -320 5 -4 144
-41 662 -173 176 -45 379 -97 450 -115 72 -19 256 -66 410 -105 154 -39 348
-89 430 -110 83 -21 267 -69 410 -105 143 -37 328 -84 410 -105 83 -21 283
-72 445 -114 162 -41 392 -100 510 -131 118 -30 289 -73 380 -96 l165 -42 270
117 271 117 158 209 c88 116 165 215 172 221 8 6 156 42 330 79 174 38 317 70
318 72 2 2 80 104 174 228 l170 226 352 96 353 97 196 -90 195 -90 406 112
405 111 127 -133 128 -133 192 28 c147 22 201 34 225 50 17 11 940 779 2051
1704 l2019 1684 7 316 c4 173 3 319 -1 322 -4 4 -69 22 -143 40 -74 18 -142
36 -151 41 -9 5 -22 39 -33 91 -10 46 -31 139 -47 208 -16 69 -44 192 -63 274
-19 81 -36 149 -38 151 -2 1 -68 19 -148 39 -80 20 -230 58 -335 85 -104 27
-341 87 -525 135 -184 47 -363 92 -398 101 -34 9 -68 13 -75 9 -6 -5 -146
-120 -310 -257 -164 -137 -301 -247 -303 -244 -5 5 -24 86 -114 482 -16 72
-35 152 -42 180 l-13 49 -70 18 c-38 10 -200 52 -360 93 -159 41 -387 99 -505
129 -118 31 -288 74 -377 97 l-162 41 -308 -256 c-169 -141 -310 -253 -314
-248 -7 6 -20 62 -114 482 -19 85 -39 171 -44 190 l-10 35 -188 48 c-197 50
-435 110 -964 246 -174 45 -318 81 -320 81 -2 0 -328 -270 -724 -600z"/>
<path d="M6515 1146 l-37 -84 28 -118 29 -117 134 -124 c73 -68 137 -123 141
-123 4 0 29 52 55 115 46 111 47 117 41 187 -4 40 -21 132 -38 204 l-30 131
-61 7 c-33 3 -97 6 -142 6 l-82 0 -38 -84z"/>
<path d="M7283 736 c-100 -12 -186 -26 -191 -31 -5 -6 -29 -86 -52 -180 l-44
-170 28 -118 c24 -100 31 -118 49 -122 73 -15 320 -68 417 -89 63 -14 116 -23
119 -20 2 2 -1 119 -7 259 -9 218 -15 272 -39 375 l-27 120 -36 -1 c-19 -1
-117 -11 -217 -23z"/>
<path d="M6193 647 c-45 -12 -87 -27 -92 -32 -6 -6 -13 -46 -15 -90 l-6 -80
83 -77 84 -78 94 32 c52 17 95 32 96 33 2 1 -10 54 -26 119 -26 105 -33 122
-67 157 -21 21 -45 39 -54 38 -8 0 -52 -11 -97 -22z"/>
</g>
</svg>
